P2
40 16
255
91 168 10 2 140 35 84 186 0 10 128 211 225 171 41 0 0 0 9 64 188 177 36 0 0 13 157 220 115 14 0 0 0 0 1 80 206 49 1 0
58 249 239 181 188 61 45 130 0 63 233 207 160 158 44 0 0 6 52 149 218 198 48 0 0 73 221 201 196 45 0 0 0 0 26 185 176 35 17 2
114 255 76 226 242 53 35 5 0 92 223 70 27 44 18 0 0 30 133 186 201 175 27 0 0 65 135 99 189 57 0 0 0 3 110 203 62 64 69 4
28 12 155 79 127 107 28 2 0 82 220 145 77 27 20 0 0 63 198 213 228 178 27 0 0 19 61 121 191 49 1 0 0 42 201 128 38 159 98 0
132 20 122 43 142 234 191 193 0 33 153 153 132 55 19 0 0 39 111 126 211 190 28 0 0 3 28 147 182 47 3 0 0 111 235 128 146 221 76 0
84 81 22 158 71 170 63 242 0 10 72 92 138 104 15 0 0 5 23 57 189 194 23 0 0 3 62 157 127 61 19 0 5 121 207 188 222 215 35 0
73 249 117 204 226 175 117 181 0 9 137 165 180 96 5 0 0 1 15 60 206 199 30 0 0 19 171 207 186 184 108 6 3 41 82 122 234 129 10 0
165 163 127 147 147 117 66 38 0 7 149 223 136 27 0 0 0 0 10 65 196 172 29 0 0 13 158 224 217 188 122 18 0 0 4 91 213 58 2 0
0 0 65 187 219 203 137 27 0 2 90 208 185 61 5 0 0 4 95 208 201 102 17 0 0 0 38 175 118 13 0 0 0 7 112 209 198 101 18 0
0 6 133 178 129 190 185 26 0 35 205 162 144 139 14 0 0 18 156 192 190 180 38 0 0 2 128 225 104 22 0 0 0 46 220 193 195 180 30 0
0 13 76 36 45 198 127 5 0 59 183 53 77 154 26 0 0 21 126 130 175 166 25 0 0 12 198 160 20 22 2 0 0 51 170 108 148 171 32 0
0 20 87 124 181 222 88 0 0 52 168 120 139 144 45 0 0 19 129 200 224 121 19 0 0 29 221 124 35 33 9 0 0 33 123 141 168 164 45 0
0 13 102 186 227 201 58 0 0 36 117 115 127 171 78 0 0 25 151 240 215 105 29 0 0 46 233 174 156 143 40 0 0 18 53 58 118 198 55 0
0 6 28 126 194 79 6 0 0 18 97 41 32 149 121 0 0 19 148 202 172 83 11 0 0 32 235 182 127 194 142 2 0 12 46 28 93 206 58 0
0 0 31 184 137 22 0 0 0 11 141 110 87 189 105 1 0 14 152 192 148 86 9 0 0 9 173 215 126 190 172 13 0 10 114 151 197 181 33 0
0 0 78 197 68 4 0 0 0 2 91 215 224 151 31 0 0 5 106 189 144 61 6 0 0 0 38 172 228 189 84 4 0 5 121 218 166 58 10 2
