P2
40 16
255
216 147 242 35 145 234 96 112 0 4 99 207 162 63 10 0 0 1 69 190 224 203 119 20 0 0 16 69 192 183 36 0 0 11 133 205 215 162 36 0
22 229 142 160 196 140 68 25 0 35 203 194 159 119 19 0 0 15 156 183 148 211 164 18 0 8 65 135 195 210 55 1 0 72 236 210 163 169 50 0
221 206 96 165 181 68 33 84 0 53 193 114 110 106 21 0 0 21 84 40 70 212 112 2 0 27 123 163 192 195 40 0 0 106 221 77 35 73 32 0
86 178 68 153 140 104 76 89 0 43 167 173 162 87 24 0 0 18 72 105 172 217 75 0 0 52 182 200 214 190 39 0 0 86 205 118 61 44 30 0
175 122 124 155 158 5 242 137 0 28 132 176 164 99 27 0 0 12 82 152 213 200 51 0 0 34 101 109 180 194 38 0 0 35 142 147 107 45 27 0
43 102 209 183 102 186 10 226 0 17 132 113 119 128 38 0 0 9 34 114 197 98 10 0 0 8 21 45 161 193 28 0 0 15 85 121 132 77 17 0
239 25 43 5 79 163 89 63 0 14 164 158 164 167 44 0 0 1 38 186 155 40 4 0 0 3 17 60 193 186 25 0 0 12 139 193 167 64 4 0
158 191 247 165 22 94 219 76 0 4 102 218 203 103 23 2 0 1 81 206 80 11 3 0 0 0 18 74 184 146 23 0 0 9 155 218 103 18 1 0
0 0 2 87 204 45 4 1 0 7 100 193 191 88 7 0 0 13 155 229 223 153 39 1 0 0 21 162 155 27 1 0 0 7 130 225 177 53 4 0
0 0 28 195 160 38 35 6 0 47 173 184 192 163 22 0 0 21 153 149 189 209 46 0 0 3 104 228 128 32 1 0 0 54 222 172 198 136 8 0
0 5 127 199 51 92 90 5 0 40 86 71 176 156 16 0 0 7 27 36 179 173 13 0 0 15 182 168 36 24 2 0 0 57 162 82 159 161 17 0
0 55 214 116 53 193 115 0 0 13 45 103 215 91 6 0 0 11 79 155 234 143 39 0 0 33 214 126 47 35 7 0 0 29 115 138 184 169 37 0
0 128 238 144 168 240 83 0 0 7 44 171 190 50 6 0 0 33 164 239 235 187 77 0 0 46 224 180 175 150 37 0 0 14 42 60 117 185 74 0
6 118 190 185 232 202 26 0 0 9 100 195 121 64 12 0 0 12 87 207 129 73 20 0 0 32 211 188 146 186 126 2 0 10 34 22 45 159 115 0
3 30 55 104 235 94 1 0 0 20 170 210 178 163 70 2 0 7 125 204 59 22 2 0 0 11 142 209 134 176 157 12 0 13 137 127 132 205 111 2
0 0 3 101 202 36 0 0 0 7 104 190 207 163 77 7 0 13 179 155 24 3 0 0 0 0 22 155 229 189 83 5 0 6 136 229 218 152 53 6
