P2
40 48
255
219 40 51 89 10 142 142 96 0 30 213 192 33 0 0 0 0 0 1 31 182 186 21 0 0 0 74 203 230 219 134 26 0 0 0 67 212 40 2 1
10 255 58 84 10 45 188 91 0 110 231 232 105 4 1 0 0 2 15 107 239 226 35 0 0 5 123 167 155 218 167 21 0 0 13 202 167 15 30 7
99 107 45 193 132 45 147 84 0 102 116 174 134 1 0 0 0 26 102 203 247 204 19 0 0 2 20 6 49 211 107 3 0 1 122 223 36 65 100 7
130 56 242 25 147 12 255 96 0 28 50 188 112 3 2 0 0 66 195 211 237 193 18 0 0 3 39 85 168 226 74 0 0 51 233 106 27 189 126 0
38 137 188 140 76 142 122 7 0 1 65 217 53 4 2 0 0 48 118 107 233 191 16 0 0 16 123 212 247 220 79 0 0 153 240 133 172 245 84 0
86 232 73 170 22 99 242 12 0 13 146 180 26 12 8 0 0 5 14 53 224 196 17 0 0 14 52 165 207 70 10 0 6 133 206 203 241 211 27 0
10 204 224 204 22 107 232 30 0 58 231 224 201 195 111 1 0 0 0 47 223 213 30 0 0 0 33 218 118 6 0 0 2 23 43 77 238 96 1 0
10 48 40 96 45 150 58 33 0 30 210 230 209 190 120 4 0 0 1 31 183 210 41 0 0 0 91 212 39 0 0 0 0 0 0 82 215 38 0 0
0 15 165 235 211 78 3 0 0 4 130 226 184 53 1 0 0 0 10 157 164 22 0 0 0 0 45 199 196 58 1 0 0 0 72 208 175 45 1 0
0 22 168 163 238 136 9 0 0 55 228 135 170 160 13 0 0 0 89 243 135 19 0 0 0 17 122 240 241 102 3 0 0 19 207 210 196 172 12 0
0 6 23 36 224 110 6 0 0 79 192 70 143 199 30 0 0 5 177 195 22 4 0 0 1 51 158 221 201 62 5 0 0 59 230 80 57 202 51 0
0 15 61 136 243 112 27 0 0 33 163 182 199 219 59 0 0 18 212 140 30 13 1 0 0 45 132 229 203 48 5 0 0 79 201 34 14 150 100 0
0 56 198 249 248 228 104 0 0 10 37 62 66 189 112 0 0 34 230 189 171 131 27 0 0 10 66 212 213 43 0 0 0 80 183 16 5 144 112 0
0 25 134 235 144 105 34 0 0 7 25 1 2 135 159 0 0 24 227 208 157 194 138 3 0 0 41 195 217 48 2 0 0 48 207 27 25 186 97 0
0 7 135 201 33 3 0 0 0 15 137 79 68 189 142 2 0 5 143 225 124 176 188 18 0 0 61 217 221 66 3 0 0 11 203 169 175 212 38 0
0 17 183 137 6 0 0 0 0 3 128 229 235 182 50 0 0 0 13 141 227 211 107 6 0 0 46 196 198 62 4 0 0 0 73 214 206 81 2 0
0 6 155 195 100 76 39 14 0 8 141 212 228 193 53 0 0 0 58 188 228 111 8 0 0 16 163 230 144 28 1 0 0 21 166 224 221 175 35 0
0 59 237 146 72 163 122 18 0 52 230 183 128 117 33 0 0 12 152 178 112 208 28 0 0 77 226 186 213 107 6 0 0 103 242 225 188 177 51 0
0 83 212 92 124 228 92 0 0 74 223 71 24 9 2 0 0 17 72 82 75 216 31 0 0 55 126 46 171 150 7 0 0 119 214 80 23 14 4 0
0 50 182 199 236 205 50 0 0 83 237 208 157 50 1 0 0 6 36 125 214 141 15 0 0 11 33 33 179 134 5 0 0 72 207 130 19 1 0 0
0 7 75 175 233 102 9 0 0 26 118 129 181 139 16 0 0 2 46 159 195 102 15 0 0 0 2 52 206 96 3 0 0 13 149 208 78 1 0 0
0 0 43 201 168 15 0 0 0 1 6 12 112 189 30 0 0 14 119 109 61 150 56 0 0 0 10 116 187 74 11 0 0 2 55 183 148 12 0 0
0 3 117 228 65 3 0 0 0 12 96 98 180 183 19 0 0 25 183 101 46 142 111 0 0 7 133 222 203 167 105 7 0 12 120 217 141 10 0 0
0 8 171 164 9 0 0 0 0 7 155 234 191 61 1 0 0 1 67 190 220 198 91 5 0 15 174 233 210 186 157 30 0 15 198 220 54 2 0 0
0 0 72 198 60 4 0 0 0 0 28 121 204 193 87 3 0 0 20 176 152 27 14 3 0 0 2 47 202 88 0 0 0 0 85 198 212 128 15 0
0 7 185 172 22 1 0 0 0 11 151 201 133 170 138 9 0 4 111 222 74 59 51 6 0 0 2 112 231 71 2 0 0 23 192 184 158 210 51 0
0 33 231 63 2 0 0 0 0 43 220 121 104 188 116 3 0 32 212 130 30 138 76 5 0 0 13 200 171 72 23 0 0 29 179 145 160 188 34 0
0 60 228 61 50 19 0 0 0 50 202 195 196 232 95 0 0 101 239 104 134 214 98 0 0 1 113 216 86 149 58 0 0 13 142 232 225 98 6 0
0 84 229 187 205 173 36 0 0 12 61 68 92 218 59 0 0 94 230 217 237 218 71 0 0 57 222 144 129 220 64 0 0 9 146 240 201 48 1 0
0 57 247 165 91 162 152 0 0 0 1 4 120 177 20 0 0 27 86 150 236 115 11 0 9 162 236 214 236 231 42 0 0 21 198 147 199 99 3 0
0 17 215 172 78 173 170 4 0 0 10 68 199 98 4 0 0 2 15 147 204 22 0 0 8 89 136 159 239 186 15 0 0 20 199 137 179 151 9 0
0 1 69 207 236 189 60 0 0 0 29 139 160 28 0 0 0 0 20 199 135 3 0 0 0 2 7 55 220 104 4 0 0 1 92 209 209 96 4 0
0 6 101 210 224 107 9 0 0 0 0 0 63 199 39 0 0 10 133 224 197 63 4 0 0 14 168 229 240 206 85 3 0 8 146 225 123 15 0 0
0 30 178 179 167 182 19 0 0 0 0 0 111 255 87 0 0 62 209 163 208 128 6 0 0 32 161 145 161 234 96 2 0 62 236 206 215 47 0 0
0 17 93 110 179 192 18 0 0 0 0 31 191 255 47 0 0 29 87 95 189 94 2 0 0 12 28 13 136 208 32 0 0 65 138 59 222 50 0 0
0 2 17 79 177 194 42 0 0 0 0 15 247 255 39 0 0 6 70 204 224 84 2 0 0 8 63 130 235 161 46 0 0 18 34 84 222 25 0 0
0 1 2 21 78 204 102 0 0 0 7 167 255 223 23 0 0 2 40 126 190 199 35 0 0 18 112 219 222 122 46 0 0 1 16 171 165 4 0 0
0 1 7 0 8 173 148 0 0 0 103 255 191 239 0 0 0 3 27 18 42 209 103 0 0 5 73 222 97 24 4 0 0 3 96 225 86 18 5 0
0 10 84 81 123 224 106 0 0 31 247 103 127 215 0 0 0 17 139 113 125 222 93 0 0 8 152 201 36 16 2 0 0 24 209 232 194 191 110 3
0 3 104 216 218 133 19 0 0 15 47 0 71 207 23 0 0 8 143 228 214 130 22 1 0 14 198 152 38 22 5 0 0 9 145 204 197 177 106 7
0 3 14 63 197 149 15 0 0 1 66 194 196 73 3 0 0 5 103 190 221 204 87 9 0 1 86 190 96 9 0 0 0 2 104 218 161 35 0 0
0 39 88 186 228 183 22 0 0 33 207 182 173 179 22 0 0 25 194 205 194 210 85 3 0 7 100 231 137 21 0 0 0 38 202 214 216 116 10 0
0 16 82 137 172 166 15 0 0 72 203 73 107 193 30 0 0 20 124 128 126 88 13 0 0 18 139 234 146 17 2 0 0 46 201 179 213 119 19 0
0 38 147 156 214 161 26 0 0 39 190 183 212 181 26 0 0 19 98 196 196 62 5 0 0 34 177 230 179 30 6 0 0 21 200 236 201 55 5 0
0 75 207 228 249 182 45 0 0 7 118 218 214 178 40 0 0 6 33 109 213 147 16 0 0 36 115 193 221 38 6 0 0 12 190 243 140 17 1 0
0 12 49 75 230 137 8 0 0 5 99 126 103 179 69 0 0 0 4 25 154 192 25 0 0 7 47 117 222 84 6 0 0 15 222 237 150 25 1 0
0 0 0 73 219 116 7 0 0 5 126 162 125 205 77 0 0 4 54 144 224 129 6 0 0 1 88 178 223 190 88 22 0 17 211 230 185 50 3 0
0 0 13 59 175 106 6 0 0 0 67 205 212 139 22 0 0 6 122 224 124 16 0 0 0 2 75 214 244 213 146 60 0 2 110 222 167 49 6 0
