P2
40 48
255
48 201 33 124 221 255 30 33 0 8 119 222 154 31 0 0 0 0 0 22 160 213 48 0 0 7 159 195 80 28 10 0 0 0 49 183 229 234 203 69
30 178 237 38 209 209 232 191 0 47 191 217 212 72 1 0 0 2 35 106 214 237 75 1 0 60 240 123 61 114 60 2 0 1 105 168 138 177 234 70
96 40 137 124 45 25 191 124 0 43 123 150 211 51 2 0 0 24 122 192 233 233 49 0 0 100 217 30 73 189 63 0 0 1 28 27 31 162 194 15
252 211 71 107 130 10 104 196 0 15 74 190 194 24 1 0 0 66 203 207 214 226 40 0 0 77 220 128 194 194 43 0 0 3 21 66 119 234 114 0
173 142 145 229 232 249 229 51 0 3 68 221 152 26 3 0 0 32 92 61 177 223 27 0 0 23 159 237 229 118 26 0 0 1 60 165 225 220 62 0
96 109 191 252 114 239 135 204 0 4 117 201 108 41 11 0 0 3 8 14 181 224 20 0 0 6 106 231 163 25 5 0 0 2 25 104 231 74 4 0
183 193 234 201 86 249 45 150 0 17 172 212 189 135 54 1 0 0 0 15 196 214 30 0 0 18 161 213 107 21 4 0 0 0 12 185 160 7 0 0
221 56 7 51 191 232 40 137 0 7 121 218 204 122 48 2 0 0 0 19 161 193 43 0 0 7 168 186 67 14 1 0 0 0 58 216 62 0 0 0
0 0 2 97 200 33 1 0 0 9 137 225 215 98 10 0 0 0 16 171 141 14 0 0 0 1 6 37 205 156 7 0 0 0 71 207 193 61 3 0
0 0 33 212 156 24 16 2 0 63 220 128 157 190 26 0 0 1 102 234 105 13 0 0 0 21 46 139 241 197 14 0 0 21 208 201 174 170 12 0
0 5 134 210 42 78 68 4 0 49 127 53 149 183 26 0 0 7 186 166 11 0 0 0 0 24 88 175 223 163 6 0 0 51 191 69 88 208 26 0
0 52 226 106 41 176 98 0 0 16 99 181 227 171 30 0 0 20 217 132 45 17 0 0 0 49 163 189 239 140 12 0 0 30 121 68 104 202 34 0
0 133 242 134 170 231 77 0 0 1 24 77 120 205 75 0 0 32 234 208 193 165 41 0 0 71 164 172 251 142 18 0 0 10 37 38 129 175 33 0
5 121 209 208 241 208 34 0 0 2 16 5 17 182 124 0 0 19 230 184 105 157 177 4 0 6 26 71 235 132 11 0 0 4 32 62 157 147 44 0
2 24 55 115 237 97 7 0 0 20 142 88 99 216 97 0 0 2 151 208 74 139 218 21 0 0 3 58 234 142 11 0 0 0 93 198 203 175 107 9
0 0 4 111 206 41 2 0 0 7 147 230 220 137 19 0 0 0 18 154 234 227 120 6 0 0 4 38 199 163 19 0 0 0 78 208 185 132 98 23
0 14 151 178 15 0 0 0 0 7 126 201 221 188 55 0 0 10 158 226 234 214 105 9 0 25 196 235 213 93 5 0 0 0 79 213 222 168 57 2
0 43 209 198 25 0 0 0 0 53 232 210 161 140 37 0 0 28 162 150 153 232 124 5 0 24 164 146 226 137 7 0 0 10 141 177 180 219 84 0
0 61 195 136 22 0 0 0 1 89 229 125 55 24 4 0 0 13 42 21 116 218 49 0 0 11 32 56 238 86 3 0 0 6 35 15 105 218 51 0
0 49 190 129 43 23 5 0 0 81 212 228 172 48 2 0 0 8 68 135 228 171 49 0 0 31 113 193 245 135 56 0 0 7 42 80 197 197 45 0
0 59 203 174 138 107 25 0 0 14 56 97 195 95 5 0 0 17 107 215 225 127 47 0 0 52 193 253 232 216 109 0 0 32 162 230 251 223 88 0
0 55 235 194 136 165 101 0 0 0 3 39 181 118 4 0 0 6 68 221 118 20 4 0 0 7 111 230 75 44 18 0 0 24 87 192 210 100 22 0
0 56 242 217 178 223 142 1 0 9 90 155 226 72 0 0 0 6 143 210 44 10 0 0 0 12 177 163 9 5 2 0 0 1 39 226 114 9 1 0
0 18 143 222 219 173 56 2 0 5 150 221 127 9 0 0 0 10 187 163 31 14 3 0 0 28 204 89 6 2 0 0 0 0 96 216 40 3 0 0
0 0 59 212 197 53 1 0 0 0 0 21 201 108 0 0 0 0 33 192 152 60 42 15 0 0 5 63 167 183 23 0 0 23 167 216 205 144 24 0
0 19 205 201 178 181 15 0 0 0 0 81 239 64 0 0 0 5 148 209 79 105 115 19 0 0 29 111 159 249 61 0 0 110 242 221 190 166 49 0
0 70 230 61 25 192 58 0 0 0 9 186 177 37 16 0 0 37 214 119 55 179 120 6 0 0 2 74 140 249 47 0 1 117 211 89 54 38 8 0
0 88 204 26 4 132 111 0 0 2 111 222 65 130 67 0 0 79 226 183 197 239 109 0 0 0 0 50 228 220 53 0 0 64 210 133 29 7 0 0
0 87 189 15 3 121 125 0 0 56 228 138 97 222 70 0 0 41 148 185 231 198 47 0 0 0 18 143 196 170 29 0 0 13 171 204 52 1 0 0
0 48 216 31 14 164 116 0 9 168 235 195 227 240 43 0 0 3 19 113 226 69 2 0 0 10 127 196 119 148 26 0 0 5 91 202 111 2 0 0
0 8 201 165 148 220 55 0 9 112 152 159 232 206 20 0 0 0 12 182 170 12 0 0 0 55 231 154 164 207 26 0 0 14 134 225 114 2 0 0
0 0 60 211 224 108 5 0 0 3 5 31 219 115 1 0 0 0 33 213 88 1 0 0 0 10 42 50 143 212 55 0 0 17 201 221 47 0 0 0
0 0 68 185 211 120 12 0 0 3 102 214 171 40 4 0 0 3 99 201 181 99 23 0 0 5 120 212 125 17 0 0 0 0 84 195 78 4 0 0
0 26 185 180 154 204 49 0 0 41 205 201 210 96 2 0 0 30 208 168 124 102 16 0 0 33 223 209 233 134 5 0 0 9 134 243 107 4 0 0
0 46 191 122 130 190 40 0 0 61 185 138 189 124 6 0 0 48 204 61 41 46 4 0 0 50 198 100 136 210 34 0 0 33 193 211 103 0 0 0
0 22 169 224 222 111 9 0 0 31 135 189 218 171 29 0 0 59 215 152 127 60 7 0 0 62 172 59 63 182 78 0 0 53 194 180 123 2 0 0
0 13 144 237 205 58 2 0 0 2 30 75 127 207 76 0 0 40 165 183 199 165 27 0 0 65 146 22 32 179 94 0 0 41 114 146 185 21 0 0
0 22 184 142 177 129 13 0 0 1 10 6 29 177 142 0 0 18 94 57 71 201 70 0 0 51 156 14 52 211 82 0 0 14 77 148 232 121 19 0
0 18 184 137 147 183 31 0 0 4 89 96 110 204 149 3 0 10 125 113 124 207 65 0 0 22 207 166 207 197 30 0 0 2 117 204 219 217 133 20
0 1 74 197 219 127 12 0 0 2 99 219 232 182 60 2 0 3 103 219 213 109 12 0 0 5 126 227 169 48 1 0 0 1 76 209 236 222 161 54
0 19 183 231 114 9 0 0 0 1 53 181 183 59 0 0 0 5 85 181 223 187 79 8 0 1 57 181 239 158 21 0 0 0 2 69 199 158 76 5
0 98 238 182 216 59 1 0 0 6 115 237 245 163 4 0 0 32 177 189 198 225 90 3 0 46 186 224 161 116 17 0 0 1 76 212 149 129 159 16
0 79 137 34 195 96 2 0 0 11 115 229 237 181 7 0 0 25 104 120 190 153 29 0 1 110 205 93 26 16 0 0 0 21 183 129 34 169 159 5
0 14 33 29 209 88 0 0 0 8 121 237 243 171 9 0 0 9 67 188 227 101 18 0 0 105 227 71 25 11 2 0 0 66 213 144 144 237 125 0
0 0 3 83 218 43 0 0 0 7 114 233 247 174 12 0 0 1 14 93 204 181 24 0 0 32 174 195 93 5 0 0 0 53 159 178 186 233 67 0
0 0 28 174 166 22 2 0 0 6 117 230 229 186 22 0 0 0 1 14 137 227 38 0 0 5 63 176 211 70 3 0 0 8 26 35 175 161 4 0
0 14 173 240 190 151 107 5 0 4 122 231 234 189 39 1 0 1 33 126 218 171 14 0 0 2 70 167 225 129 23 0 0 0 0 37 222 78 0 0
0 17 187 228 216 212 180 24 0 0 55 170 193 120 33 1 0 4 91 213 155 35 0 0 0 0 54 207 206 93 11 0 0 0 1 86 191 28 0 0
